<?xml version="1.0" encoding="utf-8"?>
<!-- Generator: Adobe Illustrator 25.4.1, SVG Export Plug-In . SVG Version: 6.00 Build 0)  -->
<svg version="1.1" id="圖層_1" xmlns="http://www.w3.org/2000/svg" xmlns:xlink="http://www.w3.org/1999/xlink" x="0px" y="0px"
	 viewBox="0 0 39.7 37" style="enable-background:new 0 0 39.7 37;" xml:space="preserve">
<style type="text/css">
	.st0{fill:#333333;}
</style>
<path class="st0" d="M35.5,17.4c-0.1,0-0.2,0-0.3,0c-0.2,0-0.4,0.1-0.5,0.3l-1.3,1.8c-0.1,0.2-0.2,0.4-0.1,0.6l1,6
	c0.2,1-0.1,2-0.7,2.9c-0.6,0.9-1.5,1.4-2.5,1.6l-19.7,3.3c-1,0.2-2-0.1-2.9-0.7c-0.9-0.6-1.4-1.5-1.6-2.5L3.7,10.8
	c-0.2-1,0.1-2,0.7-2.9C5,7.1,5.8,6.6,6.8,6.4l19.7-3.3c0.3-0.1,0.7-0.1,1.1,0c0.1,0,0.2,0,0.2,0c0.2,0,0.4-0.1,0.5-0.3l1-1.4
	c0.2-0.2,0.2-0.5,0.1-0.7c-0.1-0.2-0.3-0.4-0.5-0.5C28,0,27.1-0.1,26.1,0.1L6.3,3.4C4.5,3.7,3,4.6,1.8,6.2c-1.1,1.6-1.5,3.3-1.2,5.2
	l3.3,19.7c0.3,1.9,1.2,3.4,2.8,4.5c1.6,1.1,3.3,1.5,5.2,1.2l19.7-3.3c1.9-0.3,3.4-1.2,4.5-2.8c1.1-1.6,1.5-3.3,1.2-5.2L36.1,18
	C36,17.7,35.8,17.5,35.5,17.4z"/>
<path class="st0" d="M38.8,3.8l-3-2.2c-0.4-0.3-0.9-0.4-1.4-0.3c-0.5,0.1-0.9,0.4-1.3,0.8L20.3,20L13,14.8c-0.4-0.3-0.9-0.4-1.4-0.3
	c-0.5,0.1-0.9,0.4-1.3,0.8l-2.2,3c-0.3,0.4-0.4,0.9-0.3,1.4c0.1,0.5,0.4,0.9,0.8,1.3l11.9,8.5c0.4,0.3,0.9,0.4,1.4,0.3
	c0.5-0.1,0.9-0.4,1.3-0.8L39.3,6.5c0.3-0.4,0.4-0.9,0.3-1.4C39.5,4.6,39.3,4.1,38.8,3.8z"/>
</svg>
